M48
; DRILL file {KiCad 9.0.1} date 2026-05-15T19:31:22-0300
; FORMAT={-:-/ absolute / metric / decimal}
; #@! TF.CreationDate,2026-05-15T19:31:22-03:00
; #@! TF.GenerationSoftware,Kicad,Pcbnew,9.0.1
; #@! TF.FileFunction,Plated,1,2,PTH
FMAT,2
METRIC
; #@! TA.AperFunction,Plated,PTH,ComponentDrill
T1C0.750
; #@! TA.AperFunction,Plated,PTH,ComponentDrill
T2C0.800
; #@! TA.AperFunction,Plated,PTH,ViaDrill
T3C1.000
; #@! TA.AperFunction,Plated,PTH,ComponentDrill
T4C1.000
; #@! TA.AperFunction,Plated,PTH,ComponentDrill
T5C1.100
; #@! TA.AperFunction,Plated,PTH,ComponentDrill
T6C1.300
; #@! TA.AperFunction,Plated,PTH,ComponentDrill
T7C1.400
; #@! TA.AperFunction,Plated,PTH,ComponentDrill
T8C1.500
%
G90
G05
T1
X207.0Y-148.96
X207.0Y-151.5
X208.27Y-150.23
T2
X71.88Y-161.5
X72.0Y-157.0
X76.505Y-70.175
X79.005Y-70.175
X79.5Y-161.5
X79.62Y-157.0
X83.5Y-74.5
X86.0Y-74.5
X89.5Y-132.0
X89.5Y-134.5
X89.725Y-83.555
X89.725Y-86.055
X91.15Y-121.0
X91.15Y-123.5
X91.866Y-108.02
X91.866Y-115.64
X95.925Y-89.515
X95.925Y-97.135
X95.95Y-83.505
X95.95Y-86.005
X97.506Y-70.56
X97.506Y-78.18
X97.55Y-120.95
X97.55Y-123.45
X97.65Y-127.365
X97.65Y-134.985
X97.866Y-108.02
X97.866Y-115.64
X99.7Y-92.68
X99.7Y-100.3
X101.375Y-70.39
X101.375Y-78.01
X102.025Y-107.805
X102.025Y-118.425
X102.7Y-83.355
X102.7Y-85.855
X103.7Y-120.975
X103.7Y-123.475
X103.856Y-91.97
X103.856Y-102.97
X113.696Y-131.19
X121.316Y-131.19
X137.5Y-124.0
X142.5Y-165.0
X142.5Y-167.5
X145.12Y-124.0
X157.5Y-165.0
X157.5Y-167.5
X197.0Y-53.19
X197.0Y-60.81
X197.0Y-65.69
X197.0Y-73.31
X201.15Y-65.715
X201.15Y-73.335
X204.19Y-83.0
X205.69Y-156.5
X207.0Y-137.69
X207.0Y-145.31
X207.5Y-65.88
X207.5Y-73.5
X209.5Y-56.0
X211.81Y-83.0
X212.0Y-56.0
X212.0Y-62.69
X212.0Y-70.31
X213.31Y-156.5
T3
X72.5Y-89.5
X78.5Y-54.5
X105.225Y-80.275
X108.101Y-131.345
X128.976Y-87.23
X132.5Y-93.5
X132.5Y-113.0
X133.075Y-68.575
X155.25Y-120.75
X185.825Y-122.15
X199.275Y-122.125
T4
X83.5Y-141.0
X83.5Y-161.0
X108.916Y-79.18
X108.916Y-81.72
X108.916Y-84.26
X108.916Y-86.8
X108.916Y-89.34
X108.916Y-91.88
X108.916Y-94.42
X108.916Y-96.96
X108.916Y-99.5
X108.916Y-102.04
X108.916Y-104.58
X108.916Y-107.12
X108.916Y-109.66
X108.916Y-112.2
X108.916Y-114.74
X108.916Y-117.28
X108.916Y-119.82
X108.916Y-122.36
X108.916Y-124.9
X108.916Y-127.44
X125.876Y-79.05
X125.876Y-81.59
X125.876Y-84.13
X125.876Y-86.67
X125.876Y-89.21
X125.876Y-91.75
X125.876Y-94.29
X125.876Y-96.83
X125.876Y-99.37
X125.876Y-101.91
X125.876Y-104.45
X125.876Y-106.99
X125.876Y-109.53
X125.876Y-112.07
X125.876Y-114.61
X125.876Y-117.15
X125.876Y-119.69
X125.876Y-122.23
X125.876Y-124.77
X125.876Y-127.31
X128.5Y-141.0
X128.5Y-161.0
X182.635Y-125.375
X185.175Y-125.375
X185.715Y-60.695
X185.715Y-63.235
X185.715Y-65.775
X185.715Y-68.315
X185.715Y-70.855
X185.715Y-73.395
X185.715Y-83.555
X185.715Y-86.095
X185.715Y-88.635
X185.715Y-91.175
X185.715Y-103.875
X185.715Y-106.415
X185.715Y-108.955
X187.715Y-125.375
X188.255Y-60.695
X188.255Y-63.235
X188.255Y-65.775
X188.255Y-68.315
X188.255Y-70.855
X188.255Y-73.395
X188.255Y-83.555
X188.255Y-86.095
X188.255Y-88.635
X188.255Y-91.175
X188.255Y-103.875
X188.255Y-106.415
X188.255Y-108.955
X190.255Y-125.375
X192.795Y-125.375
X195.335Y-125.375
X197.875Y-125.375
X201.5Y-58.5
X204.04Y-58.5
T5
X209.5Y-128.5
X209.5Y-131.04
X209.5Y-133.58
T6
X75.5Y-129.75
X75.5Y-152.25
X209.367Y-162.0
X209.367Y-167.0
T7
X78.04Y-81.7
X78.04Y-85.9
X78.04Y-90.1
X78.04Y-94.3
X78.04Y-98.5
X78.04Y-102.7
X78.04Y-106.9
X78.04Y-111.1
X78.04Y-115.3
X78.04Y-119.5
X83.54Y-81.7
X83.54Y-85.9
X83.54Y-90.1
X83.54Y-94.3
X83.54Y-98.5
X83.54Y-102.7
X83.54Y-106.9
X83.54Y-111.1
X83.54Y-115.3
X83.54Y-119.5
X88.2Y-56.55
X88.2Y-62.05
X92.4Y-56.55
X92.4Y-62.05
X96.6Y-56.55
X96.6Y-62.05
X100.8Y-56.55
X100.8Y-62.05
X105.0Y-56.55
X105.0Y-62.05
X109.2Y-56.55
X109.2Y-62.05
X113.4Y-56.55
X113.4Y-62.05
X117.6Y-56.55
X117.6Y-62.05
X121.8Y-56.55
X121.8Y-62.05
X126.0Y-56.55
X126.0Y-62.05
T8
X142.5Y-132.5
X142.5Y-157.5
X147.5Y-132.5
X147.5Y-157.5
X152.5Y-132.5
X152.5Y-157.5
X157.5Y-132.5
X157.5Y-157.5
X162.5Y-132.5
X162.5Y-157.5
M30
